<svg width="21" height="16" viewBox="0 0 21 16" fill="none" xmlns="http://www.w3.org/2000/svg">
<path d="M20.2067 1.74944L20.2065 1.7502L17.1893 14.4752C17.0957 14.8417 16.9608 14.9453 16.8843 14.9766C16.7969 15.0123 16.607 15.0282 16.2589 14.8588L11.6861 11.8453L11.371 11.6376L11.0849 11.8837L8.86594 13.7922L8.86588 13.7922L8.85868 13.7986C8.8482 13.808 8.83813 13.817 8.82843 13.8256L9.07972 10.6399L17.433 3.88954C17.4334 3.88919 17.4339 3.88884 17.4343 3.88848C17.5525 3.79401 17.7457 3.60681 17.7569 3.32682C17.7718 2.95416 17.4812 2.77338 17.31 2.71878C17.137 2.66364 16.953 2.67257 16.7969 2.7043C16.6337 2.73748 16.4621 2.80322 16.295 2.90202L5.94389 8.73082L1.60732 7.51697L1.60701 7.51688C1.48126 7.48177 1.391 7.44459 1.32892 7.41206C1.42666 7.34065 1.59059 7.25317 1.8419 7.16517C1.84227 7.16504 1.84264 7.16491 1.84302 7.16478L19.5796 1.05393C19.5802 1.05373 19.5807 1.05353 19.5813 1.05334C19.8888 0.950719 20.0679 1.01593 20.1379 1.07659C20.1938 1.12497 20.316 1.29138 20.2067 1.74944ZM1.23679 7.49723C1.23677 7.49722 1.23701 7.49675 1.23761 7.49583L1.23679 7.49723Z" fill="white" stroke="black"/>
</svg>
