<svg width="31" height="30" viewBox="0 0 31 30" fill="none" xmlns="http://www.w3.org/2000/svg">
<path d="M11.7126 12.2365C11.2308 12.3702 11.2309 12.3705 11.231 12.3707L11.2311 12.3713L11.2315 12.3727L11.2326 12.3765L11.2361 12.3885C11.239 12.3984 11.243 12.4119 11.2483 12.429C11.2589 12.4631 11.2743 12.5112 11.2952 12.5715C11.3369 12.6922 11.4003 12.8622 11.4893 13.0679C11.667 13.4785 11.9486 14.0352 12.3666 14.6252C13.2036 15.8067 14.5984 17.1351 16.8013 17.6693L16.9992 17.7173L17.0703 17.6751C17.1428 17.6725 17.235 17.665 17.3374 17.6464C17.5682 17.6047 17.9107 17.496 18.168 17.1977L18.1681 17.1977L18.1731 17.1918L18.7647 16.4839L18.7649 16.484L18.7735 16.473C18.8854 16.3314 19.298 16.1442 19.7817 16.3898C20.7567 16.9306 21.6803 17.5568 22.527 18.2615L22.5269 18.2616L22.5362 18.269C22.6735 18.3778 22.7327 18.4899 22.7509 18.5923C22.7694 18.6968 22.7543 18.844 22.6476 19.0348L22.5894 19.1386C22.3224 19.5631 21.9736 19.9683 21.5342 20.3437L21.5319 20.3456C21.2209 20.6147 20.8216 20.7791 20.3904 20.8144C20.3309 20.8135 20.2703 20.8085 20.2063 20.7981L20.0176 20.7456C19.4348 20.5834 18.4166 20.1777 16.688 19.2847C15.2016 18.5031 13.8321 17.5512 12.6039 16.4419L12.5943 16.4333L12.5843 16.4252L12.5726 16.4156L12.5628 16.4048L12.5248 16.3627L12.4902 16.3385L12.4807 16.3255L12.453 16.2978C11.2892 15.1364 10.2878 13.8378 9.47638 12.4361L9.47153 12.4277L9.46637 12.4195C8.83797 11.4248 8.3236 10.3682 7.92994 9.26995L7.86858 9.09878C7.8546 9.00443 7.854 8.90811 7.86696 8.81088C7.9018 8.54954 8.03878 8.24091 8.34572 7.90314C8.74848 7.4759 9.16928 7.14976 9.61879 6.88671H9.63775L9.75181 6.82264C9.89791 6.74056 10.0756 6.70681 10.2447 6.7308L10.2528 6.73195C10.3967 6.76515 10.5155 6.83886 10.595 6.93277L10.6019 6.94101L10.6093 6.94893C11.353 7.75501 12.011 8.62592 12.5749 9.55344C12.8152 9.96013 12.6458 10.3322 12.4776 10.4628C12.4773 10.463 12.4771 10.4632 12.4768 10.4634L11.7428 11.0244C11.417 11.2623 11.2927 11.5997 11.2447 11.8328C11.2199 11.9536 11.2122 12.0606 11.2106 12.138C11.2098 12.1771 11.2106 12.2099 11.2116 12.2346C11.2118 12.2383 11.212 12.2418 11.2121 12.2452C11.2125 12.253 11.213 12.2599 11.2134 12.2657L11.2142 12.2766L11.2146 12.2807L11.2147 12.2825L11.2148 12.2833L11.2149 12.2837C11.2149 12.2839 11.2149 12.2841 11.7126 12.2365ZM11.7126 12.2365L11.2308 12.3702L11.2191 12.3279L11.2149 12.2841L11.7126 12.2365ZM14.9662 0.50434L14.9688 0.504296C15.3824 0.4974 15.7171 0.502012 15.9472 0.508282C16.0622 0.511417 16.151 0.514963 16.2105 0.517686C16.2402 0.519048 16.2625 0.520203 16.2771 0.520997L16.2932 0.521899L16.2967 0.52211L16.2973 0.522142L16.2973 0.522146L16.2974 0.522149L16.2974 0.52215L16.2974 0.522152L16.312 0.523064L16.3268 0.523115C23.2868 0.547119 26.331 2.69911 27.019 3.30054L27.1604 3.4241H27.1802C29.5024 5.45947 30.8977 9.94767 29.9499 17.3004C29.4954 20.8026 27.8926 22.6771 26.3129 23.7271C25.0016 24.5986 23.7138 24.9093 22.9592 25.0913C22.7843 25.1335 22.6381 25.1688 22.5268 25.2025L22.5257 25.2028C22.132 25.3233 18.3101 26.2366 13.3067 25.8417L13.0661 25.8227L12.9015 25.9993L11.4844 27.5205C11.7885 27.1864 12.1006 26.8397 12.3975 26.5077C12.8626 25.9876 13.2961 25.4974 13.6133 25.1372C13.7601 24.9705 13.8821 24.8315 13.9708 24.7304C18.2287 24.9536 21.5871 24.1723 22.0029 24.0461C22.0618 24.0283 22.158 24.0074 22.2848 23.9799C22.8775 23.8513 24.1362 23.5781 25.34 22.801C26.8472 21.8281 28.3007 20.0749 28.7132 16.8785C29.1327 13.691 29.0599 10.9862 28.5904 8.83421C28.1226 6.69003 27.2512 5.05429 26.0374 4.06451C25.2459 3.39137 22.2696 1.6667 16.2211 1.64874L16.2141 1.64831L16.1507 1.64487C16.0957 1.64208 16.0157 1.63847 15.913 1.63503C15.7079 1.62816 15.4124 1.62195 15.0457 1.62431C15.0456 1.62432 15.0455 1.6243 15.0454 1.6243C15.0449 1.62431 15.0445 1.62432 15.0441 1.62433L15.0419 1.62433C13.947 1.63195 12.2156 1.71126 10.4231 2.07288C8.64047 2.43251 6.74026 3.08236 5.35661 4.2699L5.34789 4.27738L5.33953 4.28525C3.27628 6.22756 2.626 9.05994 2.54799 12.3531L2.54796 12.3546C2.5456 12.4688 2.54282 12.5873 2.53995 12.7097C2.50248 14.3059 2.44913 16.5783 3.11297 18.6811C3.81335 20.8997 5.31494 22.9406 8.39515 23.8722L8.38806 25.0351L8.13894 24.9683C4.61548 24.0236 2.89873 21.8387 2.05095 19.4111C1.191 16.9486 1.22729 14.239 1.26597 12.2868C1.3578 8.4336 2.14 5.45093 4.25563 3.45616C5.6866 2.21347 7.71192 1.47556 9.73598 1.04892C11.7541 0.623518 13.7162 0.518656 14.9662 0.50434Z" fill="white" stroke="black"/>
</svg>
