<svg width="21" height="12" viewBox="0 0 21 12" fill="none" xmlns="http://www.w3.org/2000/svg">
<mask id="path-1-inside-1_4_72" fill="white">
<path fill-rule="evenodd" clip-rule="evenodd" d="M19.7792 0.833333C19.9275 0.363333 19.7792 0.0216665 19.1229 0.0216665H16.9409C16.3904 0.0216665 16.1363 0.320833 15.9879 0.640833C15.9879 0.640833 14.8654 3.37417 13.2979 5.14625C12.7896 5.65875 12.5567 5.82958 12.2813 5.82958C12.1329 5.82958 11.9421 5.65875 11.9421 5.18917V0.81125C11.9421 0.25625 11.7729 0 11.3067 0H7.87501C7.53584 0 7.32418 0.25625 7.32418 0.5125C7.32418 1.04625 8.10793 1.17458 8.19251 2.66917V5.91667C8.19251 6.62125 8.06751 6.75 7.79001 6.75C7.04876 6.75 5.24834 3.99542 4.16834 0.856667C3.95834 0.235 3.745 0 3.19417 0H0.991251C0.355834 0 0.25 0.29875 0.25 0.619167C0.25 1.19583 0.991251 4.09958 3.7025 7.94292C5.50292 10.5679 8.06584 11.9787 10.3746 11.9787C11.7729 11.9787 11.9421 11.6583 11.9421 11.1246V9.13875C11.9421 8.49833 12.0692 8.39167 12.5142 8.39167C12.8317 8.39167 13.4038 8.56208 14.6959 9.82208C16.1784 11.3167 16.4325 12 17.2588 12H19.4404C20.0759 12 20.3725 11.6796 20.2029 11.0604C20.0125 10.4413 19.2921 9.54458 18.36 8.47708C17.8517 7.87958 17.0892 7.2175 16.8563 6.89708C16.5388 6.47 16.6234 6.29917 16.8563 5.915C16.835 5.915 19.5042 2.11417 19.7792 0.831667"/>
</mask>
<path fill-rule="evenodd" clip-rule="evenodd" d="M19.7792 0.833333C19.9275 0.363333 19.7792 0.0216665 19.1229 0.0216665H16.9409C16.3904 0.0216665 16.1363 0.320833 15.9879 0.640833C15.9879 0.640833 14.8654 3.37417 13.2979 5.14625C12.7896 5.65875 12.5567 5.82958 12.2813 5.82958C12.1329 5.82958 11.9421 5.65875 11.9421 5.18917V0.81125C11.9421 0.25625 11.7729 0 11.3067 0H7.87501C7.53584 0 7.32418 0.25625 7.32418 0.5125C7.32418 1.04625 8.10793 1.17458 8.19251 2.66917V5.91667C8.19251 6.62125 8.06751 6.75 7.79001 6.75C7.04876 6.75 5.24834 3.99542 4.16834 0.856667C3.95834 0.235 3.745 0 3.19417 0H0.991251C0.355834 0 0.25 0.29875 0.25 0.619167C0.25 1.19583 0.991251 4.09958 3.7025 7.94292C5.50292 10.5679 8.06584 11.9787 10.3746 11.9787C11.7729 11.9787 11.9421 11.6583 11.9421 11.1246V9.13875C11.9421 8.49833 12.0692 8.39167 12.5142 8.39167C12.8317 8.39167 13.4038 8.56208 14.6959 9.82208C16.1784 11.3167 16.4325 12 17.2588 12H19.4404C20.0759 12 20.3725 11.6796 20.2029 11.0604C20.0125 10.4413 19.2921 9.54458 18.36 8.47708C17.8517 7.87958 17.0892 7.2175 16.8563 6.89708C16.5388 6.47 16.6234 6.29917 16.8563 5.915C16.835 5.915 19.5042 2.11417 19.7792 0.831667" fill="white"/>
<path d="M15.9879 0.640833L15.0807 0.220277L15.0713 0.240415L15.0629 0.260948L15.9879 0.640833ZM13.2979 5.14625L14.0079 5.85047L14.028 5.83019L14.047 5.8088L13.2979 5.14625ZM8.19251 2.66917H9.19251V2.64089L9.19091 2.61266L8.19251 2.66917ZM4.16834 0.856667L3.22092 1.17671L3.22275 1.18203L4.16834 0.856667ZM3.7025 7.94292L4.52724 7.37725L4.51964 7.36647L3.7025 7.94292ZM14.6959 9.82208L15.4058 9.11785L15.4 9.11195L15.394 9.10614L14.6959 9.82208ZM20.2029 11.0604L21.1674 10.7963L21.1633 10.7813L21.1588 10.7665L20.2029 11.0604ZM18.36 8.47708L17.5983 9.12513L17.6068 9.1348L18.36 8.47708ZM16.8563 6.89708L17.6652 6.30907L17.6588 6.30047L16.8563 6.89708ZM16.8563 5.915L17.7114 6.43345L18.632 4.915H16.8563V5.915ZM20.7328 1.1343C20.8414 0.790325 20.9392 0.204166 20.5729 -0.3209C20.1952 -0.862396 19.5799 -0.978333 19.1229 -0.978333V1.02167C19.2071 1.02167 19.2111 1.03354 19.1687 1.01747C19.1166 0.99772 19.0158 0.942589 18.9326 0.8234C18.8512 0.706721 18.8339 0.596155 18.8321 0.541849C18.8305 0.49463 18.8397 0.487499 18.8256 0.532363L20.7328 1.1343ZM19.1229 -0.978333H16.9409V1.02167H19.1229V-0.978333ZM16.9409 -0.978333C16.4704 -0.978333 16.0509 -0.845349 15.7081 -0.584611C15.3811 -0.3358 15.1936 -0.0234501 15.0807 0.220277L16.8952 1.06139C16.912 1.02515 16.9241 1.00631 16.9299 0.998437C16.9348 0.991689 16.9317 0.997489 16.9191 1.00711C16.913 1.01176 16.9062 1.01612 16.8992 1.01977C16.8922 1.02343 16.887 1.02534 16.8847 1.02607C16.8792 1.02781 16.8946 1.02167 16.9409 1.02167V-0.978333ZM15.9879 0.640833C15.0629 0.260948 15.0629 0.26084 15.063 0.260742C15.063 0.260723 15.063 0.260635 15.063 0.260597C15.0631 0.260521 15.0631 0.260487 15.0631 0.260493C15.0631 0.260505 15.063 0.260681 15.0629 0.261019C15.0626 0.261694 15.062 0.263016 15.0612 0.264972C15.0596 0.268883 15.0569 0.275325 15.0532 0.284185C15.0457 0.301908 15.0341 0.329291 15.0185 0.36544C14.9873 0.437767 14.9402 0.545009 14.8785 0.680041C14.7549 0.950502 14.5739 1.3303 14.346 1.76301C13.8839 2.64041 13.255 3.68551 12.5489 4.4837L14.047 5.8088C14.9084 4.8349 15.6245 3.6273 16.1155 2.69501C16.3642 2.22287 16.5617 1.80859 16.6976 1.51117C16.7657 1.36226 16.8185 1.24212 16.8548 1.15804C16.8729 1.11599 16.8869 1.08292 16.8967 1.05974C16.9016 1.04815 16.9054 1.03903 16.9081 1.03248C16.9095 1.02921 16.9106 1.02659 16.9114 1.02462C16.9118 1.02364 16.9121 1.02282 16.9124 1.02217C16.9125 1.02185 16.9126 1.02156 16.9127 1.02132C16.9128 1.0212 16.9128 1.02105 16.9129 1.02099C16.9129 1.02085 16.913 1.02072 15.9879 0.640833ZM12.5879 4.44203C12.4667 4.56429 12.3714 4.65641 12.2934 4.72679C12.2146 4.79793 12.1658 4.83551 12.1379 4.85455C12.1118 4.87245 12.1193 4.86334 12.1539 4.85122C12.1943 4.83707 12.2401 4.82958 12.2813 4.82958V6.82958C12.6695 6.82958 12.9899 6.69479 13.2666 6.50566C13.5097 6.33947 13.7542 6.10629 14.0079 5.85047L12.5879 4.44203ZM12.2813 4.82958C12.6119 4.82958 12.8148 5.01855 12.8932 5.13853C12.9667 5.251 12.9421 5.30162 12.9421 5.18917H10.9421C10.9421 5.5463 11.0129 5.91713 11.2189 6.23241C11.4298 6.5552 11.8023 6.82958 12.2813 6.82958V4.82958ZM12.9421 5.18917V0.81125H10.9421V5.18917H12.9421ZM12.9421 0.81125C12.9421 0.477844 12.9009 -0.0022244 12.5978 -0.404394C12.2419 -0.876599 11.724 -1 11.3067 -1V1C11.3365 1 11.2999 1.00475 11.23 0.976696C11.1486 0.943998 11.0639 0.883363 11.0007 0.799394C10.9441 0.724289 10.9322 0.667216 10.9331 0.671489C10.9345 0.677528 10.9421 0.718205 10.9421 0.81125H12.9421ZM11.3067 -1H7.87501V1H11.3067V-1ZM7.87501 -1C6.97588 -1 6.32418 -0.288324 6.32418 0.5125H8.32418C8.32418 0.800824 8.09581 1 7.87501 1V-1ZM6.32418 0.5125C6.32418 0.923054 6.48603 1.22746 6.61998 1.42524C6.68151 1.51609 6.74829 1.60015 6.79274 1.65627C6.84351 1.72037 6.87995 1.76623 6.91625 1.81643C7.02192 1.96258 7.16364 2.18732 7.19411 2.72567L9.19091 2.61266C9.1368 1.65643 8.84435 1.06971 8.537 0.644609C8.47004 0.552 8.40455 0.470062 8.3605 0.414452C8.31014 0.350864 8.28921 0.323313 8.27594 0.303722C8.26029 0.280611 8.32418 0.368822 8.32418 0.5125H6.32418ZM7.19251 2.66917V5.91667H9.19251V2.66917H7.19251ZM7.19251 5.91667C7.19251 6.06869 7.18542 6.15614 7.17891 6.20117C7.17151 6.25246 7.17103 6.20331 7.21847 6.11679C7.27957 6.00536 7.39233 5.88303 7.55595 5.80861C7.62607 5.77671 7.68634 5.76261 7.72576 5.75617C7.76383 5.74995 7.78804 5.75 7.79001 5.75V7.75C7.92362 7.75 8.1469 7.73698 8.38399 7.62914C8.6491 7.50856 8.84514 7.31 8.97217 7.07832C9.17492 6.70853 9.19251 6.25868 9.19251 5.91667H7.19251ZM7.79001 5.75C7.98618 5.75 8.0761 5.83045 8.02024 5.79324C7.98326 5.76861 7.90598 5.70655 7.79066 5.58432C7.56213 5.34208 7.27312 4.95902 6.95345 4.44916C6.31787 3.43545 5.63014 2.03155 5.11393 0.531302L3.22275 1.18203C3.78654 2.82053 4.53902 4.3633 5.25896 5.51157C5.61705 6.0827 5.98464 6.58446 6.3359 6.95679C6.51049 7.14184 6.70392 7.31951 6.91149 7.45778C7.10019 7.58347 7.40853 7.75 7.79001 7.75V5.75ZM5.11574 0.536631C5.0025 0.201402 4.832 -0.222759 4.48584 -0.540981C4.08888 -0.905904 3.61718 -1 3.19417 -1V1C3.26447 1 3.27341 1.00799 3.2487 1.0002C3.23497 0.995876 3.21489 0.987952 3.19181 0.974724C3.16855 0.961391 3.14837 0.946181 3.13229 0.931397C3.10091 0.902551 3.10062 0.889678 3.12185 0.929646C3.14442 0.972144 3.17712 1.047 3.22093 1.1767L5.11574 0.536631ZM3.19417 -1H0.991251V1H3.19417V-1ZM0.991251 -1C0.541675 -1 0.0235806 -0.896337 -0.352549 -0.488757C-0.718634 -0.0920594 -0.75 0.382121 -0.75 0.619167H1.25C1.25 0.588341 1.25328 0.605988 1.24149 0.649418C1.2277 0.70016 1.19341 0.785065 1.11724 0.867611C0.952878 1.04571 0.80541 1 0.991251 1V-1ZM-0.75 0.619167C-0.75 0.902583 -0.673108 1.2988 -0.557101 1.72751C-0.433217 2.18534 -0.241844 2.762 0.0342956 3.43543C0.587024 4.7834 1.48641 6.53627 2.88537 8.51936L4.51964 7.36647C3.20735 5.50623 2.38048 3.88556 1.88477 2.67665C1.63669 2.07165 1.4733 1.57404 1.37347 1.20512C1.32348 1.0204 1.29085 0.873166 1.27135 0.764723C1.24997 0.645928 1.25 0.604503 1.25 0.619167H-0.75ZM2.87784 8.50854C4.82191 11.343 7.66705 12.9787 10.3746 12.9787V10.9787C8.46464 10.9787 6.18394 9.79286 4.52717 7.3773L2.87784 8.50854ZM10.3746 12.9787C11.0764 12.9787 11.7502 12.9134 12.243 12.5802C12.8897 12.1427 12.9421 11.4782 12.9421 11.1246H10.9421C10.9421 11.2201 10.9319 11.2032 10.9526 11.1455C10.9653 11.1101 10.9872 11.0652 11.0222 11.0197C11.0573 10.974 11.0942 10.9426 11.1225 10.9235C11.171 10.8907 11.1676 10.9117 11.0317 10.9363C10.8999 10.9601 10.6921 10.9787 10.3746 10.9787V12.9787ZM12.9421 11.1246V9.13875H10.9421V11.1246H12.9421ZM12.9421 9.13875C12.9421 9.07424 12.9437 9.02599 12.9461 8.99028C12.9473 8.97278 12.9486 8.95976 12.9497 8.95056C12.9502 8.94603 12.9507 8.94268 12.9511 8.94039C12.9514 8.93811 12.9516 8.93706 12.9516 8.93714C12.9516 8.93721 12.9513 8.93858 12.9507 8.94111C12.9501 8.94364 12.9492 8.9475 12.9478 8.95254C12.945 8.9625 12.9401 8.97809 12.932 8.99786C12.9156 9.03816 12.8859 9.09636 12.8349 9.15864C12.7825 9.22272 12.7196 9.27619 12.6522 9.31665C12.5873 9.3556 12.531 9.37484 12.4964 9.38412C12.4414 9.39889 12.4269 9.39167 12.5142 9.39167V7.39167C12.3062 7.39167 11.7003 7.38746 11.2876 7.89146C11.0986 8.12222 11.0222 8.3758 10.9862 8.56655C10.9504 8.7568 10.9421 8.9555 10.9421 9.13875H12.9421ZM12.5142 9.39167C12.4044 9.39167 12.7236 9.29552 13.9977 10.538L15.394 9.10614C14.084 7.82864 13.259 7.39167 12.5142 7.39167V9.39167ZM13.9859 10.5263C14.3393 10.8826 14.6202 11.1912 14.8601 11.4595C15.0902 11.7168 15.3125 11.9717 15.5108 12.1731C15.7126 12.378 15.9513 12.5935 16.246 12.7514C16.5634 12.9214 16.898 13 17.2588 13V11C17.2064 11 17.1994 10.9932 17.1904 10.9884C17.1588 10.9714 17.0864 10.9226 16.936 10.7699C16.7821 10.6137 16.6113 10.4175 16.351 10.1264C16.1004 9.84612 15.7937 9.5089 15.4058 9.11785L13.9859 10.5263ZM17.2588 13H19.4404V11H17.2588V13ZM19.4404 13C19.8871 13 20.4808 12.8915 20.889 12.4059C21.3186 11.8949 21.2966 11.2677 21.1674 10.7963L19.2385 11.3246C19.2568 11.3916 19.2465 11.3944 19.2517 11.3506C19.258 11.2973 19.2846 11.2064 19.3581 11.1189C19.4287 11.0349 19.5012 11.0033 19.5239 10.9955C19.5416 10.9893 19.5203 11 19.4404 11V13ZM21.1588 10.7665C21.0112 10.2866 20.6966 9.79431 20.3648 9.34381C20.0185 8.87371 19.5826 8.35685 19.1133 7.81937L17.6068 9.1348C18.0695 9.66482 18.4599 10.13 18.7545 10.5299C19.0635 10.9494 19.2043 11.215 19.2471 11.3544L21.1588 10.7665ZM19.1217 7.8291C18.8346 7.4917 18.4849 7.14608 18.2082 6.87229C17.8902 6.55767 17.7207 6.38553 17.6651 6.3091L16.0474 7.48507C16.2248 7.72905 16.553 8.04816 16.8016 8.29407C17.0914 8.5808 17.3771 8.86497 17.5984 9.12507L19.1217 7.8291ZM17.6588 6.30047C17.6344 6.26771 17.6209 6.24675 17.6144 6.23569C17.6078 6.22472 17.6108 6.22799 17.6171 6.24367C17.6237 6.26021 17.6339 6.28999 17.6409 6.33089C17.6481 6.37284 17.6505 6.41782 17.6472 6.46312C17.6406 6.5531 17.6144 6.60441 17.6199 6.59261C17.6226 6.58678 17.6299 6.57203 17.6461 6.54346C17.6625 6.51461 17.6829 6.48039 17.7114 6.43345L16.0012 5.39655C15.9163 5.53651 15.684 5.88789 15.6525 6.31678C15.6154 6.823 15.848 7.21696 16.0537 7.4937L17.6588 6.30047ZM16.8563 4.915C17.0718 4.93851 17.4917 5.14292 17.6654 5.32751C17.7627 5.49281 17.8481 5.78818 17.8561 5.9044C17.858 6.08856 17.8061 6.22754 17.801 6.24218C17.775 6.317 17.7452 6.37208 17.7425 6.37729C17.7333 6.39478 17.7258 6.40785 17.7226 6.4133C17.7187 6.41985 17.7158 6.42466 17.7144 6.42695C17.7105 6.43328 17.7105 6.43307 17.719 6.42014C17.7339 6.39742 17.7585 6.36048 17.7946 6.30675C17.8645 6.20267 17.9702 6.04611 18.0967 5.85675C18.3508 5.47667 18.6966 4.95309 19.0529 4.38697C19.408 3.82297 19.7802 3.20595 20.0842 2.64057C20.3707 2.10788 20.655 1.51669 20.757 1.04133L18.8014 0.622007C18.7658 0.787898 18.6135 1.15275 18.3227 1.69341C18.0496 2.20139 17.7043 2.77506 17.3603 3.32157C17.0177 3.86598 16.683 4.37276 16.4339 4.74541C16.309 4.93242 16.2074 5.08282 16.1344 5.19161C16.099 5.24431 16.0682 5.29028 16.0462 5.32386C16.0362 5.33908 16.0224 5.36037 16.0096 5.38117C16.0055 5.38787 15.9893 5.41424 15.9719 5.44719C15.9682 5.45423 15.9378 5.5107 15.9115 5.58643C15.9063 5.60153 15.8543 5.74086 15.8562 5.92526C15.8642 6.04159 15.9496 6.33705 16.0469 6.5024C16.2207 6.68705 16.6407 6.89149 16.8563 6.915V4.915Z" fill="black" mask="url(#path-1-inside-1_4_72)"/>
</svg>
