<svg width="31" height="30" viewBox="0 0 31 30" fill="none" xmlns="http://www.w3.org/2000/svg">
<path d="M2.9064 22.2301L2.85084 22.432L0.961823 29.2977L8.04383 27.4509L8.23414 27.4012L8.40726 27.4946C10.5175 28.6322 12.8923 29.2412 15.3091 29.2459C15.3094 29.2459 15.3097 29.2459 15.31 29.2459M2.9064 22.2301L15.3138 29.7459H15.3091L15.31 29.2459M2.9064 22.2301L2.80145 22.0488M2.9064 22.2301L2.80145 22.0488M15.31 29.2459L15.3138 29.2459C23.2716 29.2459 29.7455 22.7976 29.75 14.8722M15.31 29.2459L29.75 14.8722M29.75 14.8722C29.7499 11.0357 28.255 7.42755 25.5276 4.71381L25.295 4.48235L25.3104 4.44314C22.5811 1.919 19.0531 0.5 15.3081 0.5C7.35499 0.5 0.881246 6.94823 0.876562 14.8678L29.75 14.8722ZM2.80145 22.0488C1.53705 19.8651 0.876612 17.3979 0.876562 14.8681L2.80145 22.0488ZM21.8942 18.4245L22.4021 18.6817C22.4021 18.7407 22.3992 18.8112 22.3919 18.8922C22.3676 19.1637 22.2975 19.5259 22.1529 19.928L22.1525 19.9293C22.0539 20.2058 21.7229 20.546 21.2437 20.8526C20.7801 21.1493 20.2955 21.3398 20.0268 21.3853C19.4248 21.4716 18.6966 21.5026 17.9067 21.2535C17.838 21.23 17.7673 21.2059 17.6944 21.1812C17.1881 21.0092 16.5778 20.8018 15.817 20.4818C12.5122 19.0589 10.2566 15.894 9.73575 15.1631C9.69641 15.1079 9.66696 15.0666 9.64771 15.0409C9.63834 15.0277 9.62701 15.012 9.6139 14.9937C9.48006 14.8074 9.16125 14.3636 8.85846 13.7699C8.5168 13.1001 8.22094 12.2864 8.22094 11.4891C8.22094 9.99738 8.94053 9.22681 9.31859 8.82196C9.34573 8.7929 9.37111 8.76572 9.39434 8.74029C9.62488 8.50285 9.88905 8.44906 10.0263 8.44906C10.281 8.44906 10.5057 8.44948 10.6931 8.46666L10.7159 8.46875H10.7387C10.7723 8.46875 10.8088 8.46732 10.833 8.46637C10.8381 8.46618 10.8427 8.466 10.8465 8.46586C10.8748 8.46485 10.8915 8.46467 10.9049 8.46521C10.9133 8.46555 10.9184 8.46612 10.9213 8.46655C10.9381 8.47842 11.0141 8.54421 11.1161 8.79303L11.116 8.79305L11.1187 8.79933C11.2532 9.11513 11.4697 9.63973 11.6806 10.1505C11.7123 10.2273 11.7438 10.3037 11.775 10.3791C12.0057 10.9377 12.2267 11.472 12.2837 11.5861C12.3188 11.6562 12.3288 11.6932 12.3314 11.7163C12.3329 11.7295 12.3342 11.7522 12.3159 11.7956C12.279 11.8641 12.2498 11.9205 12.2244 11.9694C12.1506 12.1119 12.1097 12.1909 12.0075 12.3187C11.9521 12.3841 11.899 12.4481 11.8479 12.5095C11.7079 12.6779 11.5835 12.8275 11.4736 12.9374C11.4708 12.9403 11.4678 12.9432 11.4647 12.9463C11.3786 13.0322 11.2099 13.2005 11.1249 13.4335C11.0205 13.72 11.0637 14.0207 11.2346 14.3106C11.4616 14.698 12.2348 15.9737 13.4084 17.0181C14.6657 18.1455 15.785 18.6301 16.2985 18.8524C16.3937 18.8936 16.468 18.9258 16.5185 18.9514L16.5291 18.9568L16.5399 18.9616C16.752 19.0567 16.9984 19.1371 17.2602 19.1073C17.5467 19.0747 17.7596 18.9227 17.922 18.7416C18.1388 18.4997 18.8807 17.6353 19.1473 17.2344L19.1476 17.2339C19.1672 17.2044 19.1824 17.1859 19.1926 17.1748C19.1995 17.1759 19.2081 17.1776 19.2188 17.18C19.2624 17.19 19.3171 17.2076 19.3995 17.2369C19.5475 17.2927 20.0604 17.5329 20.6163 17.7999C21.1628 18.0625 21.7108 18.3317 21.8942 18.4245ZM10.9241 8.46712C10.9241 8.46712 10.9237 8.46705 10.9231 8.46687L10.9241 8.46712ZM10.9195 8.46535C10.9183 8.46477 10.9178 8.46441 10.9178 8.46437C10.9178 8.46434 10.9184 8.46463 10.9195 8.46535ZM8.72836 25.8927L8.72836 25.8927L8.73168 25.8947C10.722 27.0624 13.0011 27.6875 15.3081 27.6875H15.3278H15.3325C22.4525 27.6875 28.2446 21.9137 28.2544 14.8348V14.8341C28.2544 11.4005 26.9079 8.15753 24.4695 5.73932C22.0323 3.30251 18.7902 1.95625 15.3372 1.95625C8.20836 1.95625 2.41062 7.72967 2.41062 14.8144C2.41062 17.2424 3.09652 19.6051 4.38187 21.6521L4.38183 21.6522L4.38532 21.6576L4.56647 21.938L3.36618 26.2828L3.13539 27.1182L3.97412 26.8998L8.45904 25.7319L8.72836 25.8927Z" fill="white" stroke="black"/>
</svg>
